<?xml version="1.0" ?><svg height="56px" version="1.1" viewBox="0 0 43 56" width="43px" xmlns="http://www.w3.org/2000/svg" xmlns:sketch="http://www.bohemiancoding.com/sketch/ns" xmlns:xlink="http://www.w3.org/1999/xlink"><title/><desc/><defs/><g fill="none" fill-rule="evenodd" id="Page-1" stroke="none" stroke-width="1"><g id="23---CSS-File-(Flat)"><path d="M30.485,0 L1.463,0 C0.655,0 0,0.655 0,1.926 L0,55 C0,55.345 0.655,56 1.463,56 L41.537,56 C42.345,56 43,55.345 43,55 L43,12.978 C43,12.282 42.907,12.058 42.743,11.893 L31.107,0.257 C30.942,0.093 30.718,0 30.485,0" fill="#E9E9E0" id="Fill-26"/><path d="M31,0.151 L31,12 L42.849,12 L31,0.151" fill="#D9D7CA" id="Fill-27"/><path d="M41.537,56 L1.463,56 C0.655,56 0,55.345 0,54.537 L0,39 L43,39 L43,54.537 C43,55.345 42.345,56 41.537,56" fill="#0096E6" id="Fill-127"/><path d="M17.08,51.975 C16.706,52.339 16.282,52.612 15.809,52.795 C15.335,52.978 14.824,53.068 14.277,53.068 C13.676,53.068 13.122,52.959 12.616,52.74 C12.11,52.522 11.668,52.198 11.29,51.77 C10.912,51.341 10.615,50.804 10.401,50.156 C10.188,49.509 10.08,48.762 10.08,47.914 C10.08,47.066 10.188,46.321 10.401,45.679 C10.615,45.036 10.912,44.501 11.29,44.072 C11.668,43.644 12.112,43.318 12.623,43.095 C13.134,42.871 13.685,42.76 14.277,42.76 C14.824,42.76 15.335,42.851 15.809,43.033 C16.282,43.216 16.706,43.489 17.08,43.854 L15.945,44.865 C15.718,44.601 15.465,44.409 15.187,44.291 C14.908,44.173 14.619,44.113 14.319,44.113 C13.981,44.113 13.66,44.177 13.355,44.305 C13.049,44.433 12.775,44.648 12.534,44.954 C12.293,45.26 12.104,45.653 11.967,46.137 C11.83,46.62 11.757,47.212 11.748,47.914 C11.757,48.598 11.828,49.181 11.96,49.664 C12.092,50.147 12.274,50.541 12.507,50.847 C12.739,51.152 13.004,51.375 13.3,51.517 C13.596,51.658 13.908,51.729 14.236,51.729 C14.565,51.729 14.872,51.669 15.159,51.551 C15.446,51.433 15.708,51.241 15.945,50.977 L17.08,51.975" fill="#FFFFFF" id="Fill-128"/><path d="M25.133,50.238 C25.133,50.603 25.058,50.956 24.907,51.298 C24.757,51.64 24.545,51.94 24.271,52.2 C23.998,52.46 23.661,52.667 23.26,52.822 C22.858,52.978 22.403,53.055 21.893,53.055 C21.674,53.055 21.448,53.043 21.216,53.021 C20.983,52.998 20.749,52.959 20.512,52.904 C20.274,52.85 20.049,52.774 19.835,52.679 C19.621,52.583 19.437,52.467 19.281,52.33 L19.569,51.154 C19.696,51.228 19.858,51.298 20.054,51.366 C20.25,51.435 20.452,51.498 20.662,51.558 C20.872,51.617 21.081,51.665 21.291,51.701 C21.501,51.737 21.696,51.756 21.879,51.756 C22.435,51.756 22.861,51.626 23.157,51.366 C23.453,51.106 23.602,50.722 23.602,50.211 C23.602,49.901 23.497,49.637 23.287,49.418 C23.077,49.199 22.815,49.001 22.501,48.823 C22.187,48.646 21.847,48.468 21.482,48.29 C21.118,48.112 20.776,47.902 20.457,47.661 C20.138,47.42 19.874,47.135 19.664,46.807 C19.454,46.479 19.35,46.068 19.35,45.576 C19.35,45.13 19.432,44.733 19.596,44.387 C19.76,44.04 19.981,43.746 20.259,43.505 C20.537,43.264 20.861,43.079 21.23,42.951 C21.599,42.823 21.988,42.76 22.398,42.76 C22.817,42.76 23.241,42.799 23.67,42.876 C24.099,42.953 24.444,43.079 24.709,43.252 C24.654,43.37 24.591,43.5 24.518,43.642 C24.444,43.783 24.376,43.915 24.313,44.038 C24.249,44.161 24.194,44.264 24.148,44.346 C24.103,44.428 24.075,44.474 24.066,44.482 C24.012,44.455 23.95,44.419 23.882,44.373 C23.814,44.327 23.716,44.282 23.588,44.236 C23.46,44.19 23.292,44.159 23.082,44.141 C22.872,44.122 22.604,44.127 22.275,44.154 C22.093,44.173 21.92,44.225 21.756,44.311 C21.592,44.398 21.446,44.505 21.318,44.633 C21.191,44.761 21.091,44.904 21.018,45.064 C20.944,45.223 20.908,45.376 20.908,45.522 C20.908,45.886 21.013,46.18 21.223,46.403 C21.433,46.627 21.692,46.822 22.002,46.991 C22.312,47.16 22.65,47.324 23.014,47.483 C23.378,47.643 23.718,47.837 24.032,48.065 C24.347,48.292 24.608,48.577 24.819,48.919 C25.028,49.261 25.133,49.7 25.133,50.238" fill="#FFFFFF" id="Fill-129"/><path d="M32.543,50.238 C32.543,50.603 32.468,50.956 32.318,51.298 C32.167,51.64 31.955,51.94 31.682,52.2 C31.408,52.46 31.071,52.667 30.67,52.822 C30.269,52.978 29.814,53.055 29.303,53.055 C29.084,53.055 28.858,53.043 28.626,53.021 C28.394,52.998 28.159,52.959 27.922,52.904 C27.685,52.85 27.459,52.774 27.245,52.679 C27.031,52.583 26.847,52.467 26.691,52.33 L26.979,51.154 C27.106,51.228 27.268,51.298 27.464,51.366 C27.66,51.435 27.862,51.498 28.072,51.558 C28.282,51.617 28.491,51.665 28.701,51.701 C28.911,51.737 29.106,51.756 29.289,51.756 C29.845,51.756 30.271,51.626 30.567,51.366 C30.863,51.106 31.012,50.722 31.012,50.211 C31.012,49.901 30.907,49.637 30.697,49.418 C30.487,49.199 30.226,49.001 29.911,48.823 C29.597,48.646 29.257,48.468 28.893,48.29 C28.528,48.112 28.187,47.902 27.867,47.661 C27.548,47.42 27.284,47.135 27.074,46.807 C26.864,46.479 26.76,46.068 26.76,45.576 C26.76,45.13 26.842,44.733 27.006,44.387 C27.17,44.04 27.391,43.746 27.669,43.505 C27.947,43.264 28.271,43.079 28.64,42.951 C29.009,42.823 29.398,42.76 29.809,42.76 C30.228,42.76 30.652,42.799 31.08,42.876 C31.509,42.953 31.855,43.079 32.119,43.252 C32.065,43.37 32.001,43.5 31.928,43.642 C31.855,43.783 31.786,43.915 31.723,44.038 C31.659,44.161 31.604,44.264 31.559,44.346 C31.513,44.428 31.485,44.474 31.477,44.482 C31.422,44.455 31.361,44.419 31.292,44.373 C31.224,44.327 31.126,44.282 30.998,44.236 C30.87,44.19 30.702,44.159 30.492,44.141 C30.282,44.122 30.014,44.127 29.686,44.154 C29.503,44.173 29.33,44.225 29.166,44.311 C29.002,44.398 28.856,44.505 28.729,44.633 C28.601,44.761 28.501,44.904 28.428,45.064 C28.355,45.223 28.318,45.376 28.318,45.522 C28.318,45.886 28.423,46.18 28.633,46.403 C28.843,46.627 29.103,46.822 29.412,46.991 C29.722,47.16 30.06,47.324 30.424,47.483 C30.788,47.643 31.128,47.837 31.442,48.065 C31.757,48.292 32.019,48.577 32.229,48.919 C32.439,49.261 32.543,49.7 32.543,50.238" fill="#FFFFFF" id="Fill-130"/><path d="M13,19 L13,15 C13,14.449 13.448,14 14,14 C14.553,14 15,13.552 15,13 C15,12.448 14.553,12 14,12 C12.346,12 11,13.346 11,15 L11,19 C11,20.103 10.103,21 9,21 C8.447,21 8,21.448 8,22 C8,22.552 8.447,23 9,23 C10.103,23 11,23.897 11,25 L11,29 C11,30.654 12.346,32 14,32 C14.553,32 15,31.552 15,31 C15,30.448 14.553,30 14,30 C13.448,30 13,29.551 13,29 L13,25 C13,23.8 12.458,22.734 11.618,22 C12.458,21.266 13,20.2 13,19" fill="#0096E6" id="Fill-131"/><path d="M33,21 C31.898,21 31,20.103 31,19 L31,15 C31,13.346 29.654,12 28,12 C27.447,12 27,12.448 27,13 C27,13.552 27.447,14 28,14 C28.552,14 29,14.449 29,15 L29,19 C29,20.2 29.542,21.266 30.382,22 C29.542,22.734 29,23.8 29,25 L29,29 C29,29.551 28.552,30 28,30 C27.447,30 27,30.448 27,31 C27,31.552 27.447,32 28,32 C29.654,32 31,30.654 31,29 L31,25 C31,23.897 31.898,23 33,23 C33.553,23 34,22.552 34,22 C34,21.448 33.553,21 33,21" fill="#0096E6" id="Fill-132"/></g></g></svg>